<?xml version="1.0" encoding="UTF-8" standalone="no"?>
<svg xmlns:rdf="http://www.w3.org/1999/02/22-rdf-syntax-ns#" xmlns="http://www.w3.org/2000/svg" height="83.35mm" width="287.32mm" version="1.1" xmlns:cc="http://creativecommons.org/ns#" xmlns:dc="http://purl.org/dc/elements/1.1/" viewBox="0 0 1018.0562 295.33538">
 <metadata>
  <rdf:RDF>
   <cc:Work rdf:about="">
    <dc:format>image/svg+xml</dc:format>
    <dc:type rdf:resource="http://purl.org/dc/dcmitype/StillImage"/>
    <dc:title/>
   </cc:Work>
  </rdf:RDF>
 </metadata>
 <rect height="509.12" width="1256.9" y="-144.84" x="-127.29" fill="#333"/>
 <text font-size="15px" xml:space="preserve" style="word-spacing:0px;letter-spacing:0px" line-height="125%" y="-749.24243" x="-779.4502" font-family="sans-serif" fill="#6e6e6e"><tspan y="-749.24243" x="-779.4502"/></text>
 <g>
  <text style="word-spacing:0px;letter-spacing:0px" xml:space="preserve" font-size="65.625px" line-height="23.43756485px" y="-65.798767" x="-1127.7869" font-family="sans-serif" fill="#000000"><tspan y="-37.032837" x="-1127.7869" stroke-width=".93750px"/></text>
  <g aria-label="hθ(x)" fill="#dcdcdc">
   <path fill="#dcdcdc" d="m247.41 271.23-3.98 0.3-0.08 0.72h0.62001c0.82 0 1.14 0.18 1.14 0.62 0 0.18-0.06 0.46-0.18 0.88l-3.62 12.22h1.74l0.82001-2.78c0.52-1.74 0.76-2.32 1.48-3.36 0.92-1.34 1.92-2.06 2.86-2.06 0.52 0 0.88 0.34001 0.88 0.82001 0 0.34-0.1 0.78-0.3 1.4l-1.06 3.12c-0.26 0.8-0.36001 1.24-0.36001 1.66 0 0.86001 0.60001 1.5 1.4 1.5 1.24 0 2.56-1.06 3.64-2.96l-0.58-0.42c-1.02 1.58-1.84 2.36-2.46 2.36-0.2 0-0.36-0.16001-0.36-0.38001s0.06-0.44 0.38-1.34l0.94-2.76c0.32-0.9 0.48-1.68 0.48-2.24 0-1.12-0.88-1.96-2.02-1.96-1.24 0-2.4 0.82-3.76 2.7z"/>
   <path style="baseline-shift:sub" d="m259.08 285.75h-3.7848q-0.25589 1.7793 0.006 2.5351 0.3273 0.92835 1.214 0.92835 0.89265 0 1.5711-0.93431 0.59509-0.82123 0.99381-2.5292zm0.18448-1.0117q0.16067-1.6901-0.0476-2.2852-0.3273-0.94025-1.2021-0.94025-0.9105 0-1.577 0.92835-0.52368 0.74982-0.9343 2.2971zm-1.0771-4.1181q1.4282 0 1.9995 1.2616 0.57129 1.2556 0.13687 3.4813-0.42847 2.2197-1.4937 3.4813-1.0593 1.2676-2.4875 1.2676-1.4342 0-1.9995-1.2676-0.56534-1.2616-0.13687-3.4813 0.43442-2.2257 1.4877-3.4813 1.0593-1.2616 2.4934-1.2616z"/>
   <g fill="#dcdcdc">
    <path d="m268.77 271.25c-4.04 1.5-6.98 5.92-6.98 10.46 0 2.56 0.76 4.78 2.32 6.72l0.42-0.3c-0.88001-1.72-1.16-2.84-1.16-4.6 0-3.04 0.88001-6.44 2.26-8.82 0.78-1.32 1.66-2.12 3.34-3z"/>
    <path d="m271.69 282.87 0.3 1.34c0.34001 1.5 0.86001 2.06 1.84 2.06 0.74 0 1.1-0.24 2.02-1.36 0.36-0.42 0.42-0.52 0.94-1.44l-0.62-0.34c-0.2 0.32-0.26 0.42-0.56001 0.84-0.58 0.78-0.92 1.08-1.28 1.08-0.46 0-0.66-0.44-1.02-2.08l-0.38-1.9 0.88-1.62c0.48-0.9 0.9-1.34 1.26-1.34 0.16 0 0.26 0.08 0.34 0.26 0.18 0.4 0.32001 0.5 0.68001 0.5 0.62 0 1-0.42 1-1.08 0-0.7-0.48-1.22-1.14-1.22-0.54001 0-1.14 0.28-1.56 0.74-0.4 0.44-0.42 0.44-1.1 1.7l-0.58 1.04-0.22-1.1c-0.34-1.72-0.78001-2.38-1.6-2.38-0.44 0-0.88 0.26-1.38 0.82-0.32 0.36-0.6 0.76001-1.5 2.06l0.58001 0.42c1.02-1.46 1.3-1.76 1.64-1.76 0.14 0 0.34 0.14 0.42 0.3 0.18 0.32 0.18 0.32 0.58 2.3l0.24 1.16-0.9 1.6c-0.56 1.02-1.06 1.58-1.38 1.58-0.14 0-0.26-0.14-0.3-0.4-0.1-0.54-0.36-0.78-0.86001-0.78-0.6 0-1.02 0.48-1.02 1.16 0 0.74001 0.52 1.24 1.32 1.24 0.96001 0 1.9-0.8 2.76-2.32z"/>
    <path d="m276.01 288.43c4.02-1.52 6.96-5.94 6.96-10.46 0-2.58-0.76001-4.8-2.3-6.72l-0.42 0.3c0.86 1.72 1.14 2.84 1.14 4.58 0 3.06-0.86 6.44-2.26 8.84-0.76001 1.32-1.64 2.1-3.32 3z"/>
   </g>
  </g>
  <g aria-label="Cost" transform="rotate(-90)" fill="#dcdcdc">
   <path d="m-131.93 1.5983c-0.96-1.14-1.98-1.6-3.5-1.6-2.2 0-4.2 1.04-5.8 3.04-1.48 1.8-2.24 3.88-2.24 6.1 0 3.56 2.32 5.9 5.88 5.9 1.76 0 3.26-0.62 4.4-1.8 0.62-0.64 1.08-1.38 1.6-2.6l-0.82-0.36c-0.5 1.06-0.78 1.54-1.14 1.96-1 1.24-2.2 1.82-3.7 1.82-1.24 0-2.2-0.4-2.8-1.18-0.6-0.74-0.92-1.8-0.92-2.94 0-2.28 0.8-4.92 2.06-6.86 0.92-1.42 2.26-2.22 3.64-2.22 1.32 0 2.26 0.68 2.8 2.02 0.32 0.74 0.46 1.62 0.52 3.16h0.82l1.12-5.6h-0.72001z"/>
   <path d="m-124.36 5.3383c-1.3 0-2.6 0.6-3.68 1.72-1.1 1.14-1.68 2.58-1.68 4.24 0 2.28 1.38 3.74 3.56 3.74 1.44 0 2.68-0.56 3.64-1.64 1.06-1.2 1.7-2.8 1.7-4.28 0-2.08-1.6-3.78-3.54-3.78zm-0.1 0.76c1.1 0 1.74 0.92 1.74 2.46 0 1.04-0.4 2.64-0.94 3.74-0.68 1.38-1.42 1.98-2.48 1.98-1.16 0-1.78-0.74-1.78-2.1 0-1.66 0.68-3.9 1.5-5 0.56-0.72 1.2-1.08 1.96-1.08z"/>
   <path d="m-114.94 5.3383c-2.1 0-3.62 1.28-3.62 3.02 0 0.84 0.50001 1.58 1.38 2.04 0.32 0.16 0.74 0.36 1.56 0.68 1.14 0.46 1.42 0.76 1.42 1.44 0 1.06-0.90001 1.76-2.28 1.76-1.02 0-1.74-0.28-1.74-0.68 0-0.1 0.06-0.24 0.14-0.3 0.36-0.4 0.42-0.5 0.42-0.86 0-0.56-0.44-1-1.02-1-0.66 0-1.16 0.56-1.16 1.34 0 1.4 1.26 2.26 3.26 2.26 2.3 0 3.88-1.26 3.88-3.08 0-0.78-0.36-1.48-1-1.92-0.44-0.28-0.64-0.38-1.74-0.78-1.3-0.46-1.64-0.78-1.64-1.56 0-0.92 0.88-1.6 2.04-1.6 0.76001 0 1.3 0.22 1.3 0.54 0 0.08-0.04 0.18-0.1 0.28-0.28 0.4-0.32 0.5-0.32 0.8 0 0.54 0.44 0.92 1.04 0.92 0.68 0 1.14-0.5 1.14-1.22 0-1.22-1.24-2.08-2.96-2.08z"/>
   <path d="m-105.57 2.3183h-1.74l-0.98 3.32h-1.88l-0.28 0.94h1.88l-1.5 5.04c-0.28 1-0.38 1.46-0.38 1.9 0 0.84 0.64 1.52 1.44 1.52 0.94 0 2.06-0.62 2.76-1.56 0.28001-0.38 0.48001-0.7 1-1.54l-0.6-0.4c-1.24 1.88-1.82 2.44-2.48 2.44-0.28 0-0.46-0.22-0.46-0.56 0-0.16 0.02-0.3 0.06-0.46l1.9-6.38h2.18l0.28-0.94h-2.18z"/>
  </g>
 </g>
 <path style="color-rendering:auto;color:#000000;isolation:auto;mix-blend-mode:normal;shape-rendering:auto;solid-color:#000000;image-rendering:auto" fill="#6e6e6e" d="m25.868 0h0.938v276.9h-0.938z"/>
 <path style="color-rendering:auto;color:#000000;isolation:auto;mix-blend-mode:normal;shape-rendering:auto;solid-color:#000000;image-rendering:auto" d="m259.41-474.32h0.93751v468.75h-0.93751z" transform="rotate(90)" fill="#6e6e6e"/>
 <path d="m42.699 30.655c28.442 71.325 56.878 142.64 125.81 180.72 68.936 38.096 178.31 42.949 287.71 47.803" stroke="#dcdcdc" stroke-width="2" fill="none"/>
 <g fill="#dcdcdc">
  <g aria-label="y = 1" style="font-variant-ligatures:normal;shape-padding:0;font-variant-alternates:normal;text-decoration-color:#000000;font-variant-position:normal;font-variant-numeric:normal;text-indent:0;text-orientation:mixed;white-space:normal;text-decoration-line:none;dominant-baseline:auto;font-variant-caps:normal;font-feature-settings:normal;text-transform:none;text-decoration-style:solid">
   <path style="font-variant-ligatures:normal;shape-padding:0;font-variant-alternates:normal;text-decoration-color:#000000;font-variant-position:normal;font-variant-numeric:normal;text-indent:0;text-orientation:mixed;text-decoration-line:none;dominant-baseline:auto;font-variant-caps:normal;font-feature-settings:normal;white-space:normal;text-transform:none;text-decoration-style:solid" d="m240.1 15.335q-0.3247 0.8374-0.6665 1.5039-0.33325 0.67505-0.75196 1.145-0.4187 0.47852-0.9314 0.72632-0.51269 0.25635-1.1792 0.25635-0.29053 0-0.53833-0.01709t-0.52124-0.07691v-1.1536q0.16235 0.02564 0.36743 0.03418 0.20508 0.01709 0.35034 0.01709 0.67505 0 1.2561-0.50415 0.58106-0.50415 1.0168-1.6064l0.14526-0.36743-3.6658-9.2029h1.6406l1.9482 5.1099q0.0855 0.23071 0.21362 0.61524 0.13672 0.38452 0.2649 0.76904 0.13672 0.38452 0.23925 0.69214 0.10254 0.30762 0.11963 0.38452 0.0256-0.09399 0.11963-0.36743 0.10254-0.28198 0.22217-0.62378 0.12818-0.3418 0.25635-0.69214t0.21362-0.60669l1.8115-5.2808h1.6235z"/>
   <path style="font-variant-ligatures:normal;shape-padding:0;font-variant-alternates:normal;text-decoration-color:#000000;font-variant-position:normal;font-variant-numeric:normal;text-indent:0;text-orientation:mixed;text-decoration-line:none;dominant-baseline:auto;font-variant-caps:normal;font-feature-settings:normal;white-space:normal;text-transform:none;text-decoration-style:solid" d="m249.39 8.0202v-1.2647h8.5022v1.2647zm0 4.375v-1.2647h8.5022v1.2647z"/>
   <path style="font-variant-ligatures:normal;shape-padding:0;font-variant-alternates:normal;text-decoration-color:#000000;font-variant-position:normal;font-variant-numeric:normal;text-indent:0;text-orientation:mixed;text-decoration-line:none;dominant-baseline:auto;font-variant-caps:normal;font-feature-settings:normal;white-space:normal;text-transform:none;text-decoration-style:solid" d="m264.94 15.335v-1.308h3.0676v-9.2624l-2.7173 1.9397v-1.4526l2.8455-1.9568h1.4185v10.732h2.9309v1.3074z"/>
  </g>
  <g aria-label="0" style="font-variant-ligatures:normal;shape-padding:0;font-variant-alternates:normal;text-decoration-color:#000000;font-variant-position:normal;font-variant-numeric:normal;text-indent:0;text-orientation:mixed;white-space:normal;text-decoration-line:none;dominant-baseline:auto;font-variant-caps:normal;font-feature-settings:normal;text-transform:none;text-decoration-style:solid">
   <path style="font-variant-ligatures:normal;shape-padding:0;font-variant-alternates:normal;text-decoration-color:#000000;font-variant-position:normal;font-variant-numeric:normal;text-indent:0;text-orientation:mixed;text-decoration-line:none;dominant-baseline:auto;font-variant-caps:normal;font-feature-settings:normal;white-space:normal;text-transform:none;text-decoration-style:solid" fill="#dcdcdc" d="m29.246 289.14q0 1.7346-0.33325 2.9224-0.32471 1.1792-0.89722 1.9141-0.56397 0.72632-1.333 1.0425-0.76904 0.31616-1.6406 0.31616-0.88013 0-1.6406-0.31616-0.7605-0.31617-1.3245-1.0425-0.55542-0.72632-0.88013-1.9055-0.31616-1.1878-0.31616-2.9309 0-1.8201 0.31616-3.0078 0.32471-1.1963 0.88867-1.9055 0.56397-0.70923 1.333-0.99121 0.76904-0.29053 1.6748-0.29053 0.86304 0 1.615 0.29053 0.7605 0.28198 1.3245 0.99121 0.56397 0.70923 0.88867 1.9055 0.32471 1.1878 0.32471 3.0078zm-1.5637 0q0-1.4356-0.1709-2.384-0.1709-0.95703-0.50415-1.521-0.33325-0.57251-0.82032-0.80322-0.47852-0.23926-1.0938-0.23926-0.64942 0-1.145 0.23926-0.49561 0.23926-0.8374 0.81177-0.33325 0.56396-0.50415 1.521-0.1709 0.94849-0.1709 2.3755 0 1.3843 0.1709 2.3328 0.17944 0.94849 0.5127 1.5296 0.3418 0.57251 0.82886 0.82886 0.48706 0.2478 1.1108 0.2478 0.60669 0 1.0938-0.2478 0.48706-0.25635 0.82031-0.82886 0.3418-0.58106 0.52124-1.5296 0.18799-0.94849 0.18799-2.3328z"/>
  </g>
  <g aria-label="1" style="font-variant-ligatures:normal;shape-padding:0;font-variant-alternates:normal;text-decoration-color:#000000;font-variant-position:normal;font-variant-numeric:normal;text-indent:0;text-orientation:mixed;white-space:normal;text-decoration-line:none;dominant-baseline:auto;font-variant-caps:normal;font-feature-settings:normal;text-transform:none;text-decoration-style:solid">
   <path style="font-variant-ligatures:normal;shape-padding:0;font-variant-alternates:normal;text-decoration-color:#000000;font-variant-position:normal;font-variant-numeric:normal;text-indent:0;text-orientation:mixed;text-decoration-line:none;dominant-baseline:auto;font-variant-caps:normal;font-feature-settings:normal;white-space:normal;text-transform:none;text-decoration-style:solid" fill="#dcdcdc" d="m452.78 295.16v-1.3074h3.0676v-9.2627l-2.7173 1.9397v-1.4526l2.8455-1.9568h1.4185v10.732h2.9309v1.3074z"/>
  </g>
  <g aria-label="hθ(x)">
   <path fill="#dcdcdc" d="m791.16 271.23-3.98 0.3-0.08 0.72h0.62c0.82 0 1.14 0.18 1.14 0.62 0 0.18-0.06 0.46-0.18 0.88l-3.62 12.22h1.74l0.82-2.78c0.52-1.74 0.76-2.32 1.48-3.36 0.92001-1.34 1.92-2.06 2.86-2.06 0.52 0 0.88 0.34001 0.88 0.82001 0 0.34-0.1 0.78-0.3 1.4l-1.06 3.12c-0.26 0.8-0.36 1.24-0.36 1.66 0 0.86001 0.6 1.5 1.4 1.5 1.24 0 2.56-1.06 3.64-2.96l-0.58-0.42c-1.02 1.58-1.84 2.36-2.46 2.36-0.20001 0-0.36001-0.16001-0.36001-0.38001s0.06-0.44 0.38001-1.34l0.94-2.76c0.32-0.9 0.48-1.68 0.48-2.24 0-1.12-0.88-1.96-2.02-1.96-1.24 0-2.4 0.82-3.76 2.7z"/>
   <path style="baseline-shift:sub" d="m802.83 285.75h-3.7848q-0.25589 1.7793 0.006 2.5351 0.32731 0.92835 1.214 0.92835 0.89264 0 1.571-0.93431 0.5951-0.82123 0.99381-2.5292zm0.18448-1.0117q0.16068-1.6901-0.0476-2.2852-0.32731-0.94025-1.2021-0.94025-0.9105 0-1.577 0.92835-0.52369 0.74982-0.9343 2.2971zm-1.0771-4.1181q1.4282 0 1.9995 1.2616 0.57129 1.2556 0.13687 3.4813-0.42846 2.2197-1.4937 3.4813-1.0593 1.2676-2.4875 1.2676-1.4342 0-1.9995-1.2676-0.56534-1.2616-0.13687-3.4813 0.43442-2.2257 1.4877-3.4813 1.0593-1.2616 2.4934-1.2616z"/>
   <g fill="#dcdcdc">
    <path d="m812.52 271.25c-4.04 1.5-6.98 5.92-6.98 10.46 0 2.56 0.76001 4.78 2.32 6.72l0.42-0.3c-0.88-1.72-1.16-2.84-1.16-4.6 0-3.04 0.88-6.44 2.26-8.82 0.78001-1.32 1.66-2.12 3.34-3z"/>
    <path d="m815.44 282.87 0.3 1.34c0.34 1.5 0.86 2.06 1.84 2.06 0.74001 0 1.1-0.24 2.02-1.36 0.36-0.42 0.42-0.52 0.94-1.44l-0.62-0.34c-0.2 0.32-0.26 0.42-0.56 0.84-0.58 0.78-0.92 1.08-1.28 1.08-0.46001 0-0.66001-0.44-1.02-2.08l-0.38-1.9 0.88-1.62c0.48001-0.9 0.90001-1.34 1.26-1.34 0.16 0 0.26 0.08 0.34 0.26 0.18 0.4 0.32 0.5 0.68 0.5 0.62 0 1-0.42 1-1.08 0-0.7-0.48-1.22-1.14-1.22-0.54 0-1.14 0.28-1.56 0.74-0.4 0.44-0.42 0.44-1.1 1.7l-0.58 1.04-0.22-1.1c-0.34-1.72-0.78-2.38-1.6-2.38-0.44 0-0.88001 0.26-1.38 0.82-0.32 0.36-0.6 0.76001-1.5 2.06l0.58 0.42c1.02-1.46 1.3-1.76 1.64-1.76 0.14001 0 0.34001 0.14 0.42001 0.3 0.18 0.32 0.18 0.32 0.58 2.3l0.24 1.16-0.9 1.6c-0.56001 1.02-1.06 1.58-1.38 1.58-0.14 0-0.26-0.14-0.3-0.4-0.1-0.54-0.36-0.78-0.86-0.78-0.6 0-1.02 0.48-1.02 1.16 0 0.74001 0.52 1.24 1.32 1.24 0.96 0 1.9-0.8 2.76-2.32z"/>
    <path d="m819.76 288.43c4.02-1.52 6.96-5.94 6.96-10.46 0-2.58-0.76-4.8-2.3-6.72l-0.42 0.3c0.86001 1.72 1.14 2.84 1.14 4.58 0 3.06-0.86001 6.44-2.26 8.84-0.76 1.32-1.64 2.1-3.32 3z"/>
   </g>
  </g>
  <g aria-label="Cost" transform="rotate(-90)">
   <path d="m-131.93 545.35c-0.96-1.14-1.98-1.6-3.5-1.6-2.2 0-4.2 1.04-5.8 3.04-1.48 1.8-2.24 3.88-2.24 6.1 0 3.56 2.32 5.9 5.88 5.9 1.76 0 3.26-0.62 4.4-1.8 0.62-0.64 1.08-1.38 1.6-2.6l-0.82-0.36c-0.5 1.06-0.78 1.54-1.14 1.96-1 1.24-2.2 1.82-3.7 1.82-1.24 0-2.2-0.4-2.8-1.18-0.6-0.74001-0.92-1.8-0.92-2.94 0-2.28 0.8-4.92 2.06-6.86 0.92-1.42 2.26-2.22 3.64-2.22 1.32 0 2.26 0.68 2.8 2.02 0.32 0.74 0.46 1.62 0.52 3.16h0.82l1.12-5.6h-0.72001z"/>
   <path d="m-124.36 549.09c-1.3 0-2.6 0.6-3.68 1.72-1.1 1.14-1.68 2.58-1.68 4.24 0 2.28 1.38 3.74 3.56 3.74 1.44 0 2.68-0.56 3.64-1.64 1.06-1.2 1.7-2.8 1.7-4.28 0-2.08-1.6-3.78-3.54-3.78zm-0.1 0.76c1.1 0 1.74 0.92 1.74 2.46 0 1.04-0.4 2.64-0.94 3.74-0.68 1.38-1.42 1.98-2.48 1.98-1.16 0-1.78-0.74-1.78-2.1 0-1.66 0.68-3.9 1.5-5 0.56-0.72 1.2-1.08 1.96-1.08z"/>
   <path d="m-114.94 549.09c-2.1 0-3.62 1.28-3.62 3.02 0 0.84001 0.50001 1.58 1.38 2.04 0.32 0.16 0.74 0.36 1.56 0.68 1.14 0.46 1.42 0.76 1.42 1.44 0 1.06-0.90001 1.76-2.28 1.76-1.02 0-1.74-0.28-1.74-0.68 0-0.1 0.06-0.24 0.14-0.3 0.36-0.4 0.42-0.5 0.42-0.86001 0-0.56-0.44-1-1.02-1-0.66 0-1.16 0.56-1.16 1.34 0 1.4 1.26 2.26 3.26 2.26 2.3 0 3.88-1.26 3.88-3.08 0-0.78-0.36-1.48-1-1.92-0.44-0.28-0.64-0.38-1.74-0.78-1.3-0.46001-1.64-0.78001-1.64-1.56 0-0.92 0.88-1.6 2.04-1.6 0.76001 0 1.3 0.22 1.3 0.54 0 0.08-0.04 0.18-0.1 0.28-0.28 0.4-0.32 0.5-0.32 0.8 0 0.54 0.44 0.92 1.04 0.92 0.68 0 1.14-0.5 1.14-1.22 0-1.22-1.24-2.08-2.96-2.08z"/>
   <path d="m-105.57 546.07h-1.74l-0.98 3.32h-1.88l-0.28 0.94h1.88l-1.5 5.04c-0.28 1-0.38 1.46-0.38 1.9 0 0.84 0.64 1.52 1.44 1.52 0.94 0 2.06-0.62 2.76-1.56 0.28001-0.38 0.48001-0.7 1-1.54l-0.6-0.4c-1.24 1.88-1.82 2.44-2.48 2.44-0.28 0-0.46-0.22-0.46-0.56 0-0.16 0.02-0.3 0.06-0.46l1.9-6.38h2.18l0.28-0.94h-2.18z"/>
  </g>
 </g>
 <path style="color-rendering:auto;color:#000000;isolation:auto;mix-blend-mode:normal;shape-rendering:auto;solid-color:#000000;image-rendering:auto" fill="#6e6e6e" d="m569.62 0h0.9375v276.9h-0.9375z"/>
 <path style="color-rendering:auto;color:#000000;isolation:auto;mix-blend-mode:normal;shape-rendering:auto;solid-color:#000000;image-rendering:auto" d="m259.41-1018.1h0.93751v468.75h-0.93751z" transform="rotate(90)" fill="#6e6e6e"/>
 <path d="m984.09 30.655c-28.44 71.325-56.87 142.64-125.81 180.72-68.94 38.1-178.31 42.95-287.71 47.8" stroke="#dcdcdc" stroke-width="2" fill="none"/>
 <g fill="#dcdcdc">
  <g aria-label="y = 0" style="font-variant-ligatures:normal;shape-padding:0;font-variant-alternates:normal;text-decoration-color:#000000;font-variant-position:normal;font-variant-numeric:normal;text-indent:0;text-orientation:mixed;white-space:normal;text-decoration-line:none;dominant-baseline:auto;font-variant-caps:normal;font-feature-settings:normal;text-transform:none;text-decoration-style:solid">
   <path style="font-variant-ligatures:normal;shape-padding:0;font-variant-alternates:normal;text-decoration-color:#000000;font-variant-position:normal;font-variant-numeric:normal;text-indent:0;text-orientation:mixed;text-decoration-line:none;dominant-baseline:auto;font-variant-caps:normal;font-feature-settings:normal;white-space:normal;text-transform:none;text-decoration-style:solid" d="m783.85 15.335q-0.32471 0.8374-0.66651 1.5039-0.33325 0.67505-0.75195 1.145-0.4187 0.47852-0.9314 0.72632-0.5127 0.25635-1.1792 0.25635-0.29053 0-0.53833-0.01709-0.24781-0.01709-0.52125-0.07691v-1.1536q0.16236 0.02564 0.36744 0.03418 0.20507 0.01709 0.35034 0.01709 0.67505 0 1.2561-0.50415t1.0168-1.6064l0.14527-0.36743-3.6658-9.2029h1.6406l1.9482 5.1099q0.0854 0.23071 0.21363 0.61524 0.13672 0.38452 0.26489 0.76904 0.13672 0.38452 0.23926 0.69214t0.11963 0.38452q0.0256-0.09399 0.11963-0.36743 0.10254-0.28198 0.22217-0.62378 0.12817-0.3418 0.25635-0.69214 0.12817-0.35034 0.21362-0.60669l1.8115-5.2808h1.6235z"/>
   <path style="font-variant-ligatures:normal;shape-padding:0;font-variant-alternates:normal;text-decoration-color:#000000;font-variant-position:normal;font-variant-numeric:normal;text-indent:0;text-orientation:mixed;text-decoration-line:none;dominant-baseline:auto;font-variant-caps:normal;font-feature-settings:normal;white-space:normal;text-transform:none;text-decoration-style:solid" d="m793.14 8.0202v-1.2647h8.5022v1.2647zm0 4.375v-1.2647h8.5022v1.2647z"/>
   <path style="font-variant-ligatures:normal;shape-padding:0;font-variant-alternates:normal;text-decoration-color:#000000;font-variant-position:normal;font-variant-numeric:normal;text-indent:0;text-orientation:mixed;text-decoration-line:none;dominant-baseline:auto;font-variant-caps:normal;font-feature-settings:normal;white-space:normal;text-transform:none;text-decoration-style:solid" d="m816.41 9.3105q0 1.7346-0.33326 2.9224-0.3247 1.1792-0.89721 1.9141-0.56397 0.72632-1.333 1.0425-0.76904 0.31616-1.6406 0.31616-0.88013 0-1.6406-0.31616-0.7605-0.31616-1.3245-1.0425-0.55542-0.72632-0.88013-1.9055-0.31616-1.1877-0.31616-2.9309 0-1.8201 0.31616-3.0078 0.32471-1.1963 0.88867-1.9055 0.56397-0.70923 1.333-0.99121 0.76905-0.29053 1.6748-0.29053 0.86304 0 1.615 0.29053 0.7605 0.28198 1.3245 0.99121 0.56396 0.70923 0.88867 1.9055 0.32471 1.1877 0.32471 3.0078zm-1.5637 0q0-1.4356-0.1709-2.384-0.1709-0.95703-0.50415-1.521-0.33325-0.57251-0.82031-0.80322-0.47852-0.23926-1.0938-0.23926-0.64941 0-1.145 0.23926-0.49561 0.23926-0.8374 0.81177-0.33326 0.56397-0.50416 1.521-0.17089 0.94849-0.17089 2.3755 0 1.3843 0.17089 2.3328 0.17945 0.94849 0.5127 1.5295 0.3418 0.57251 0.82886 0.82886 0.48706 0.2478 1.1108 0.2478 0.6067 0 1.0938-0.2478 0.48706-0.25635 0.82031-0.82886 0.3418-0.58106 0.52124-1.5295 0.18799-0.94849 0.18799-2.3328z"/>
  </g>
  <g aria-label="0" style="font-variant-ligatures:normal;shape-padding:0;font-variant-alternates:normal;text-decoration-color:#000000;font-variant-position:normal;font-variant-numeric:normal;text-indent:0;text-orientation:mixed;white-space:normal;text-decoration-line:none;dominant-baseline:auto;font-variant-caps:normal;font-feature-settings:normal;text-transform:none;text-decoration-style:solid">
   <path style="font-variant-ligatures:normal;shape-padding:0;font-variant-alternates:normal;text-decoration-color:#000000;font-variant-position:normal;font-variant-numeric:normal;text-indent:0;text-orientation:mixed;text-decoration-line:none;dominant-baseline:auto;font-variant-caps:normal;font-feature-settings:normal;white-space:normal;text-transform:none;text-decoration-style:solid" fill="#dcdcdc" d="m573 289.14q0 1.7346-0.33325 2.9224-0.32471 1.1792-0.89722 1.9141-0.56397 0.72632-1.333 1.0425-0.76905 0.31616-1.6406 0.31616-0.88013 0-1.6406-0.31616-0.7605-0.31617-1.3245-1.0425-0.55542-0.72632-0.88013-1.9055-0.31616-1.1878-0.31616-2.9309 0-1.8201 0.31616-3.0078 0.32471-1.1963 0.88868-1.9055 0.56397-0.70923 1.333-0.99121 0.76905-0.29053 1.6748-0.29053 0.86304 0 1.615 0.29053 0.7605 0.28198 1.3245 0.99121 0.56397 0.70923 0.88868 1.9055 0.3247 1.1878 0.3247 3.0078zm-1.5637 0q0-1.4356-0.1709-2.384-0.1709-0.95703-0.50415-1.521-0.33326-0.57251-0.82032-0.80322-0.47851-0.23926-1.0938-0.23926-0.64942 0-1.145 0.23926-0.49561 0.23926-0.83741 0.81177-0.33325 0.56396-0.50415 1.521-0.1709 0.94849-0.1709 2.3755 0 1.3843 0.1709 2.3328 0.17944 0.94849 0.5127 1.5296 0.3418 0.57251 0.82886 0.82886 0.48706 0.2478 1.1108 0.2478 0.60669 0 1.0938-0.2478 0.48706-0.25635 0.82032-0.82886 0.3418-0.58106 0.52124-1.5296 0.18799-0.94849 0.18799-2.3328z"/>
  </g>
  <g aria-label="1" style="font-variant-ligatures:normal;shape-padding:0;font-variant-alternates:normal;text-decoration-color:#000000;font-variant-position:normal;font-variant-numeric:normal;text-indent:0;text-orientation:mixed;white-space:normal;text-decoration-line:none;dominant-baseline:auto;font-variant-caps:normal;font-feature-settings:normal;text-transform:none;text-decoration-style:solid">
   <path style="font-variant-ligatures:normal;shape-padding:0;font-variant-alternates:normal;text-decoration-color:#000000;font-variant-position:normal;font-variant-numeric:normal;text-indent:0;text-orientation:mixed;text-decoration-line:none;dominant-baseline:auto;font-variant-caps:normal;font-feature-settings:normal;white-space:normal;text-transform:none;text-decoration-style:solid" fill="#dcdcdc" d="m996.53 295.16v-1.3074h3.0676v-9.2627l-2.7173 1.9397v-1.4526l2.8455-1.9568h1.4184v10.732h2.931v1.3074z"/>
  </g>
 </g>
</svg>
